<?xml version="1.0" encoding="UTF-8"?>

<svg version="1.2" baseProfile="tiny" viewBox="0 0 51698 35159" preserveAspectRatio="xMidYMid" fill-rule="evenodd" clip-path="url(#presentation_clip_path)" stroke-width="28.222" stroke-linejoin="round" xmlns="http://www.w3.org/2000/svg" xmlns:xlink="http://www.w3.org/1999/xlink" xmlns:draw="urn:oasis:names:tc:opendocument:xmlns:drawing:1.0" xmlns:presentation="urn:oasis:names:tc:opendocument:xmlns:presentation:1.0" xmlns:smil="urn:oasis:names:tc:opendocument:xmlns:smil-compatible:1.0" xmlns:anim="urn:oasis:names:tc:opendocument:xmlns:animation:1.0" xml:space="preserve">
 <defs>
  <clipPath id="presentation_clip_path" clipPathUnits="userSpaceOnUse">
   <rect x="0" y="0" width="51698" height="35159"/>
  </clipPath>
 </defs>
 <g id="id2" class="Master_Slide" clip-path="url(#presentation_clip_path)">
  <g id="bg-id2" visibility="visible" class="Background">
   <rect fill="none" stroke="none" x="0" y="0" width="51698" height="35159"/>
  </g>
  <g id="bo-id2" visibility="visible" class="BackgroundObjects"/>
 </g>
 <g id="id1" class="Slide" visibility="visible" clip-path="url(#presentation_clip_path)">
  <g class="com.sun.star.drawing.ClosedBezierShape">
   <g>
    <path fill="none" stroke-width="4" stroke="rgb(0,0,0)" d="M 6555,17603 C 6868,16739 7486,15127 7831,14437 8176,13746 8077,13880 8430,13381 8782,12882 9498,12068 9832,11648 10165,11229 10246,11142 10367,10939 10489,10737 10642,10332 10761,10168 10881,10003 10973,9921 11092,9868 11211,9816 11273,9823 11391,9852 11509,9882 11635,10002 11864,10105 12093,10207 12149,10237 12431,10325 12712,10414 15334,10972 16338,11160 17342,11348 17656,11341 18449,11475 19242,11609 20022,11657 20906,11885 21791,12112 23017,12682 23742,12830 24467,12978 24496,12950 25176,12972 25856,12994 27132,12932 27870,13003 28607,13074 28999,13215 29681,13381 30363,13548 31207,13902 31918,13996 32630,14089 33285,14022 33840,13933 34395,13843 34813,13717 35195,13523 35577,13330 35810,13091 36030,12814 36250,12538 36381,12164 36455,11853 36529,11543 36545,11242 36518,10861 36492,10479 36379,10113 36266,9663 36153,9214 35903,8790 35857,8340 35810,7890 35872,7372 35983,7017 36094,6662 36332,6361 36487,6182 36641,6003 36702,5866 38472,4843 40242,3820 43325,2237 43812,2054 44299,1872 44327,1847 44506,1881 44684,1915 44828,2027 44947,2149 45066,2271 45137,2402 45199,2590 45261,2778 45311,3036 45277,3267 45244,3499 45065,3705 44994,3929 44923,4153 44875,4324 44852,4606 44830,4889 44996,6418 45010,6670 45023,6923 44972,7042 44994,7174 45015,7307 45129,7670 45529,7670 45929,7670 46207,7327 46244,7179 46329,6870 45816,5131 45819,4705 45822,4280 46079,3851 46228,3760 46378,3670 46536,3685 46764,3681 47329,3670 48640,4107 48980,4291 49319,4476 49529,4970 49310,5441 49209,5702 45167,11396 45167,11396 45167,11396 44489,12377 44127,12767 43766,13157 43489,13405 43025,13744 42560,14082 41910,14457 41323,14752 40736,15046 40128,15303 39512,15508 38895,15713 38487,15835 37637,15981 36787,16126 35422,16230 34407,16280 33393,16330 32435,16359 31556,16296 30677,16232 30192,16142 29146,15933 28100,15725 25500,14768 25300,14868 25100,14968 25132,15626 24766,15697 24400,15768 23920,15563 23695,15445 23470,15327 23248,14941 23143,14862 23039,14783 20371,13948 20371,13948 L 13880,12026 C 13880,12026 13100,11768 12715,12011 12545,12086 12147,12405 12147,12405 12147,12405 11507,13012 11186,13397 10865,13782 10521,14297 10241,14720 9961,15144 9750,15426 9612,15711 9474,15995 9378,16425 9352,16546 9327,16667 9265,16824 9286,17230 9307,17636 9508,17873 9598,18086 9927,18749 9932,18933 9779,19596 9725,19839 8600,23668 8600,23668 8600,23668 8400,24568 8256,24803 8000,24968 7666,24908 7516,24929 7366,24950 7252,24945 7138,25023 7024,25102 6980,25183 6886,25386 6791,25588 6703,25851 6649,26252 6596,26653 6630,27294 6649,27780 6669,28266 6669,28670 6760,29167 6850,29663 7047,30334 7216,30742 7386,31150 7532,31407 7705,31624 7878,31842 8086,31954 8193,32065 8301,32176 8316,32162 8366,32270 8417,32378 8441,32549 8445,32711 8450,32873 8440,33112 8382,33231 8325,33350 8314,33359 8193,33420 8073,33481 8023,33505 7658,33499 7292,33492 6482,33274 6035,33199 5588,33125 5214,33150 4979,33042 4745,32934 4700,32873 4617,32727 4534,32581 4516,32390 4523,32207 4529,32024 4625,31832 4664,31656 4703,31480 4762,31331 4759,31151 4755,30972 4713,30934 4633,30600 4553,30266 4385,29765 4337,29307 4290,28849 4262,28768 4302,28016 4342,27265 4463,25498 4570,24645 4676,23793 4740,23526 4822,23101 4904,22677 4914,22653 5042,22093 5171,21533 5603,20447 5940,19478 6278,18509 6242,18468 6555,17603"/>
   </g>
  </g>
  <g class="com.sun.star.drawing.ClosedBezierShape">
   <g>
    <rect fill="none" stroke="none" x="5031" y="3149" width="45202" height="31703"/>
   </g>
  </g>
  <g class="com.sun.star.drawing.TextShape">
   <g>
    <rect fill="none" stroke="none" x="-29511" y="-7181" width="3" height="955"/>
   </g>
  </g>
 </g>
</svg>